<svg width="32" height="32" viewBox="0 0 32 32" fill="none" xmlns="http://www.w3.org/2000/svg">
<path d="M16.0639 0.00252228C16.1797 0.0394813 16.2762 0.0853338 16.3815 0.143546C16.422 0.165784 16.4626 0.188022 16.5044 0.210934C16.5694 0.247135 16.5694 0.247135 16.6356 0.284067C16.681 0.309044 16.7264 0.33402 16.7732 0.359754C16.9128 0.436613 17.0522 0.513837 17.1915 0.591109C17.3457 0.676229 17.5 0.761196 17.6543 0.846151C17.7111 0.877511 17.7111 0.877511 17.7691 0.909505C18.2082 1.15125 18.6505 1.38789 19.0926 1.62468C19.7219 1.96169 20.3505 2.29971 20.9773 2.64068C21.4266 2.88497 21.8775 3.12687 22.3284 3.3687C22.5594 3.49262 22.7903 3.6167 23.0213 3.74076C23.1135 3.79028 23.2057 3.83981 23.2979 3.88933C23.8511 4.18646 24.4043 4.4836 24.9574 4.78074C25.0031 4.80528 25.0488 4.82982 25.0959 4.85511C25.1876 4.90434 25.2792 4.95357 25.3708 5.00281C25.5845 5.11762 25.7983 5.23239 26.0121 5.34699C26.0873 5.38727 26.1624 5.42757 26.2375 5.46787C26.3314 5.51819 26.4252 5.56849 26.5191 5.61876C26.6037 5.66414 26.6882 5.70969 26.7726 5.75543C26.8547 5.79971 26.9371 5.84337 27.0199 5.88647C27.059 5.90721 27.0981 5.92795 27.1383 5.94932C27.1732 5.96752 27.2081 5.98573 27.244 6.00448C27.2812 6.03119 27.2812 6.03119 27.3191 6.05843C27.3191 6.09765 27.3191 6.13687 27.3191 6.17728C27.2299 6.24016 27.2299 6.24016 27.1037 6.30805C27.0571 6.33341 27.0106 6.35877 26.9626 6.3849C26.9112 6.41227 26.8599 6.43963 26.8085 6.46699C26.7558 6.49547 26.7032 6.524 26.6505 6.55256C26.5427 6.61101 26.4346 6.66922 26.3265 6.72722C26.1858 6.80271 26.0455 6.87892 25.9054 6.95541C25.4241 7.21812 24.941 7.47782 24.4575 7.73708C24.089 7.9348 23.7215 8.13397 23.3543 8.33384C23.2774 8.37571 23.2004 8.41751 23.1234 8.45926C23.0587 8.49444 22.994 8.52981 22.9296 8.56546C22.7327 8.67323 22.7327 8.67323 22.6383 8.67323C22.6383 8.69938 22.6383 8.72553 22.6383 8.75247C22.6687 8.7631 22.6992 8.77374 22.7305 8.7847C22.8529 8.83241 22.9633 8.8879 23.078 8.94994C23.1219 8.97364 23.1659 8.99733 23.2112 9.02175C23.2582 9.04728 23.3053 9.07282 23.3537 9.09913C23.4034 9.12596 23.4531 9.15279 23.5027 9.1796C23.6544 9.26154 23.806 9.34373 23.9574 9.42598C24.0237 9.46194 24.0237 9.46194 24.0913 9.49864C24.2589 9.58965 24.4265 9.6807 24.5941 9.77183C25.042 10.0154 25.4915 10.2565 25.9409 10.4975C26.0933 10.5793 26.2456 10.6612 26.3979 10.7431C26.4745 10.7843 26.5512 10.8255 26.6278 10.8667C26.7008 10.906 26.7739 10.9453 26.8469 10.9846C26.8908 11.0082 26.9348 11.0319 26.9801 11.0562C27.0383 11.0876 27.0383 11.0876 27.0978 11.1196C27.1566 11.1507 27.2161 11.1806 27.2766 11.2088C27.2766 12.8431 27.2766 14.4773 27.2766 16.1611C27.9338 15.8114 28.5897 15.4616 29.2429 15.1058C29.5266 14.9518 29.8127 14.8019 30.099 14.6521C30.4489 14.4685 30.796 14.2806 31.1424 14.0913C31.2579 14.0282 31.3736 13.9654 31.4894 13.9028C31.5257 13.883 31.562 13.8632 31.5994 13.8428C31.6334 13.8246 31.6674 13.8064 31.7025 13.7877C31.7323 13.7716 31.762 13.7556 31.7927 13.739C31.8723 13.7047 31.8723 13.7047 32 13.7047C32 17.7446 32 21.7845 32 25.9468C31.8455 26.0252 31.6911 26.1037 31.5319 26.1845C31.3956 26.2586 31.2601 26.3338 31.1248 26.4095C31.0213 26.4618 31.0213 26.4618 30.9362 26.4618C30.9221 26.488 30.9081 26.5141 30.8936 26.5411C30.8348 26.5747 30.7741 26.6055 30.7128 26.6352C30.4571 26.7621 30.2043 26.8934 29.9521 27.0264C29.9117 27.0474 29.8714 27.0685 29.8297 27.0902C29.7919 27.1102 29.7541 27.1302 29.7151 27.1508C29.6637 27.1778 29.6637 27.1778 29.6113 27.2053C29.5258 27.2491 29.5258 27.2491 29.4894 27.3334C29.4043 27.3466 29.3191 27.3598 29.234 27.373C29.22 27.3992 29.206 27.4253 29.1915 27.4523C29.1065 27.5033 29.1065 27.5033 29.0027 27.5563C28.9514 27.5828 28.9514 27.5828 28.8991 27.6098C28.8085 27.6504 28.8085 27.6504 28.7234 27.6504C28.7094 27.6765 28.6953 27.7027 28.6809 27.7296C28.6104 27.7689 28.5383 27.8057 28.4654 27.841C28.2877 27.9289 28.1158 28.0208 27.947 28.1227C27.7339 28.2446 27.7339 28.2446 27.617 28.2446C27.603 28.2708 27.5889 28.2969 27.5745 28.3239C27.5323 28.337 27.4902 28.35 27.4468 28.3635C27.4187 28.3896 27.3906 28.4158 27.3617 28.4427C27.126 28.5616 27.126 28.5616 27.0213 28.5616C27.0072 28.5877 26.9932 28.6139 26.9787 28.6408C26.8987 28.6877 26.8167 28.7317 26.734 28.7745C26.6804 28.8025 26.6268 28.8304 26.5731 28.8584C26.5433 28.8739 26.5135 28.8894 26.4827 28.9054C26.3705 28.9643 26.259 29.0243 26.1476 29.0844C26.1074 29.106 26.0672 29.1276 26.0257 29.1499C25.9452 29.1932 25.8648 29.2367 25.7844 29.2802C25.7474 29.3 25.7104 29.3199 25.6722 29.3403C25.639 29.3582 25.6058 29.3761 25.5716 29.3946C25.4894 29.4332 25.4894 29.4332 25.4043 29.4332C25.3902 29.4593 25.3762 29.4855 25.3617 29.5124C25.305 29.5256 25.2482 29.5388 25.1915 29.552C25.1774 29.5782 25.1634 29.6043 25.1489 29.6313C25.0883 29.6658 25.0258 29.6974 24.9628 29.7279C24.6849 29.8649 24.4142 30.0127 24.1436 30.1619C24.1098 30.1803 24.0759 30.1988 24.0411 30.2178C24.0106 30.2346 23.9802 30.2513 23.9488 30.2686C23.8723 30.3048 23.8723 30.3048 23.7872 30.3048C23.7732 30.3309 23.7591 30.3571 23.7447 30.384C23.6879 30.3972 23.6312 30.4104 23.5745 30.4236C23.5604 30.4498 23.5464 30.4759 23.5319 30.5029C23.4509 30.5497 23.368 30.5937 23.2846 30.6366C22.9733 30.798 22.6687 30.9689 22.3651 31.1423C22.3124 31.172 22.3124 31.172 22.2586 31.2024C22.2272 31.2203 22.1958 31.2382 22.1634 31.2566C22.0851 31.2952 22.0851 31.2952 22 31.2952C21.986 31.3214 21.9719 31.3475 21.9574 31.3745C21.8705 31.425 21.7838 31.4721 21.6941 31.5181C21.64 31.5462 21.5859 31.5743 21.5317 31.6024C21.5038 31.617 21.4758 31.6315 21.447 31.6464C21.3623 31.6911 21.2789 31.7373 21.1956 31.7841C21.1691 31.7989 21.1425 31.8136 21.1151 31.8288C21.0406 31.8703 20.9663 31.9122 20.892 31.9541C20.7551 32.013 20.7312 32.0094 20.5957 31.9688C20.538 30.9823 20.5482 29.995 20.5503 29.0074C20.5507 28.7779 20.5509 28.5484 20.5511 28.3189C20.5516 27.8715 20.5523 27.4242 20.5532 26.9769C20.4627 27.0213 20.3723 27.0659 20.2819 27.1106C20.2434 27.1294 20.2434 27.1294 20.2041 27.1486C20.0942 27.2032 20.0035 27.251 19.9149 27.3334C19.8501 27.3654 19.7843 27.3957 19.7181 27.425C19.5426 27.5046 19.3792 27.5925 19.2168 27.6932C19.1489 27.7296 19.1489 27.7296 19.0638 27.7296C19.0498 27.7558 19.0357 27.7819 19.0213 27.8088C18.9508 27.8482 18.8787 27.8849 18.8059 27.9203C18.6281 28.0082 18.4563 28.1001 18.2874 28.2019C18.0743 28.3239 18.0743 28.3239 17.9574 28.3239C17.9434 28.35 17.9294 28.3762 17.9149 28.4031C17.8728 28.4162 17.8306 28.4293 17.7872 28.4427C17.7591 28.4689 17.7311 28.495 17.7021 28.522C17.4664 28.6408 17.4664 28.6408 17.3617 28.6408C17.3477 28.667 17.3336 28.6931 17.3191 28.7201C17.2234 28.7765 17.1279 28.8294 17.0293 28.881C17.0025 28.8954 16.9757 28.9099 16.9481 28.9247C16.8172 28.9939 16.6992 29.0447 16.5532 29.0766C16.5391 29.1028 16.5251 29.1289 16.5106 29.1559C16.4248 29.2 16.3365 29.2368 16.2473 29.2747C16.1629 29.3092 16.1629 29.3092 16.1277 29.3936C15.9161 29.3345 15.7269 29.2508 15.5319 29.1559C15.5319 29.1297 15.5319 29.1036 15.5319 29.0766C15.4055 29.0374 15.2791 28.9982 15.1489 28.9578C15.1489 28.9316 15.1489 28.9055 15.1489 28.8785C14.9948 28.8194 14.8393 28.7681 14.6809 28.7201C14.6809 28.6939 14.6809 28.6678 14.6809 28.6408C14.6497 28.63 14.6186 28.6192 14.5866 28.608C14.4738 28.5638 14.3774 28.5132 14.2739 28.4526C14.0341 28.3159 13.7848 28.2003 13.5319 28.0862C13.5319 28.06 13.5319 28.0339 13.5319 28.0069C13.4959 27.9971 13.4599 27.9873 13.4229 27.9772C13.0165 27.8397 13.0165 27.8397 12.9362 27.69C12.8656 27.6628 12.7946 27.6365 12.7234 27.6108C12.5933 27.5425 12.4657 27.4708 12.3378 27.399C12.2265 27.3406 12.1185 27.2975 12 27.2542C11.9388 27.2227 11.8784 27.1897 11.8191 27.1551C11.79 27.1384 11.7608 27.1216 11.7307 27.1044C11.6596 27.0561 11.6596 27.0561 11.617 26.9769C11.5468 26.9507 11.4766 26.9246 11.4043 26.8976C11.3902 28.5711 11.3762 30.2446 11.3617 31.9688C11.234 32.0084 11.234 32.0084 11.1592 31.9797C11.1184 31.9563 11.1184 31.9563 11.0768 31.9325C11.0465 31.9156 11.0163 31.8986 10.9851 31.8811C10.9372 31.8534 10.9372 31.8534 10.8883 31.8251C10.8224 31.788 10.7564 31.7508 10.6905 31.7137C10.6591 31.6959 10.6277 31.6781 10.5953 31.6597C10.501 31.6068 10.4054 31.5568 10.3085 31.5082C10.1011 31.403 9.9024 31.2847 9.70279 31.1673C9.59057 31.106 9.48377 31.059 9.3617 31.0179C9.3617 30.9918 9.3617 30.9656 9.3617 30.9387C9.33801 30.9348 9.31431 30.9308 9.28989 30.9268C9.16913 30.8928 9.08333 30.8384 8.97872 30.7728C8.73295 30.6233 8.47752 30.5015 8.21277 30.384C8.21277 30.3579 8.21277 30.3317 8.21277 30.3048C8.17064 30.3048 8.12851 30.3048 8.08511 30.3048C8.08511 30.2786 8.08511 30.2525 8.08511 30.2256C8.04649 30.2141 8.00787 30.2027 7.96808 30.1909C7.85841 30.1555 7.76271 30.1151 7.65957 30.0671C7.63149 30.0671 7.6034 30.0671 7.57447 30.0671C7.54902 30.0426 7.52356 30.0181 7.49734 29.9928C7.39893 29.9038 7.32034 29.8694 7.19149 29.8294C7.19149 29.8032 7.19149 29.7771 7.19149 29.7501C7.16631 29.7434 7.14113 29.7367 7.11519 29.7297C6.90606 29.67 6.7634 29.6072 6.59574 29.4728C6.48172 29.4237 6.48172 29.4237 6.38298 29.3936C6.38298 29.3674 6.38298 29.3413 6.38298 29.3143C6.31277 29.3013 6.24255 29.2882 6.17021 29.2747C6.17021 29.2486 6.17021 29.2224 6.17021 29.1955C6.14213 29.193 6.11404 29.1906 6.08511 29.1881C5.93182 29.1494 5.82305 29.0819 5.69232 28.9997C5.61947 28.951 5.61947 28.951 5.53191 28.9578C5.53191 28.9316 5.53191 28.9055 5.53191 28.8785C5.48979 28.8785 5.44766 28.8785 5.40426 28.8785C5.3867 28.8614 5.36915 28.8442 5.35106 28.8265C5.24159 28.7283 5.1197 28.6928 4.97872 28.6408C4.97872 28.6147 4.97872 28.5885 4.97872 28.5616C4.94801 28.5502 4.91729 28.5387 4.88564 28.5269C4.77482 28.4857 4.66401 28.4444 4.55319 28.4031C4.55319 28.377 4.55319 28.3508 4.55319 28.3239C4.52801 28.3171 4.50284 28.3104 4.47689 28.3035C4.2658 28.2432 4.1282 28.179 3.95745 28.0466C3.6948 27.9028 3.42237 27.7753 3.14894 27.6504C3.14894 27.6242 3.14894 27.5981 3.14894 27.5711C2.9383 27.5123 2.9383 27.5123 2.7234 27.4523C2.7234 27.4261 2.7234 27.4 2.7234 27.373C2.69532 27.373 2.66723 27.373 2.6383 27.373C2.6383 27.3469 2.6383 27.3207 2.6383 27.2938C2.61411 27.2871 2.58992 27.2803 2.56499 27.2734C2.34296 27.2085 2.15581 27.1296 1.95745 27.0165C1.92936 27.0034 1.90128 26.9903 1.87234 26.9769C1.87234 26.9507 1.87234 26.9246 1.87234 26.8976C1.80213 26.8845 1.73191 26.8715 1.65957 26.858C1.65957 26.8319 1.65957 26.8057 1.65957 26.7788C1.61481 26.769 1.57005 26.7592 1.52394 26.7491C1.3678 26.7083 1.27551 26.6353 1.14894 26.5411C1.09628 26.5272 1.04362 26.5133 0.989362 26.499C0.943723 26.4867 0.898085 26.4745 0.851064 26.4618C0.837021 26.4226 0.822979 26.3834 0.808511 26.343C0.738298 26.3299 0.668085 26.3168 0.595745 26.3034C0.595745 26.2772 0.595745 26.2511 0.595745 26.2241C0.555372 26.2208 0.515 26.2176 0.473404 26.2142C0.340426 26.1845 0.340426 26.1845 0.281915 26.1028C0.273138 26.0775 0.264362 26.0521 0.255319 26.026C0.213191 26.026 0.171064 26.026 0.12766 26.026C0.12766 25.9999 0.12766 25.9737 0.12766 25.9468C0.0855319 25.9468 0.0434043 25.9468 0 25.9468C0 21.9069 0 17.867 0 13.7047C0.0280851 13.6917 0.0561702 13.6786 0.0851064 13.6651C0.178773 13.7058 0.178773 13.7058 0.296543 13.7704C0.34048 13.7942 0.384418 13.8181 0.429687 13.8427C0.477465 13.8691 0.525243 13.8955 0.574468 13.9226C0.62448 13.9499 0.674514 13.9772 0.724568 14.0044C0.828708 14.0611 0.932753 14.118 1.03674 14.1749C1.27186 14.3035 1.50833 14.4299 1.74468 14.5565C1.83689 14.6061 1.92908 14.6556 2.02128 14.7051C2.06691 14.7296 2.11255 14.7541 2.15957 14.7794C2.29787 14.8537 2.43617 14.928 2.57447 15.0022C2.64303 15.0391 2.64303 15.0391 2.71297 15.0766C2.80449 15.1258 2.89599 15.175 2.98749 15.2241C3.20271 15.3398 3.418 15.4554 3.63351 15.5705C3.73486 15.6247 3.83617 15.679 3.93748 15.7332C4.00865 15.7713 4.07987 15.8092 4.1511 15.8472C4.19449 15.8705 4.23788 15.8937 4.28258 15.9176C4.32055 15.9379 4.35852 15.9582 4.39765 15.9791C4.52326 16.0493 4.64431 16.1247 4.76596 16.2007C4.76564 16.1754 4.76533 16.15 4.76501 16.1239C4.75749 15.5072 4.75185 14.8906 4.74832 14.2739C4.74656 13.9756 4.74417 13.6774 4.74028 13.3792C4.73688 13.1193 4.73469 12.8593 4.73393 12.5994C4.73348 12.4617 4.73244 12.3241 4.72996 12.1865C4.72722 12.0328 4.72715 11.8792 4.72731 11.7255C4.72609 11.6799 4.72486 11.6343 4.7236 11.5873C4.72697 11.2858 4.72697 11.2858 4.83975 11.1776C4.92677 11.1262 5.01152 11.0874 5.10638 11.0503C5.14953 11.0266 5.19268 11.0028 5.23714 10.9783C5.27792 10.9565 5.31869 10.9346 5.3607 10.9121C5.42937 10.8753 5.42937 10.8753 5.49943 10.8377C5.54701 10.8123 5.59459 10.7868 5.64362 10.7606C5.69354 10.7339 5.74346 10.7071 5.79337 10.6803C6.04013 10.5481 6.28717 10.4164 6.53457 10.2852C6.77901 10.1555 7.02143 10.0228 7.26369 9.88963C7.44711 9.78895 7.6313 9.68973 7.81649 9.59188C8.08307 9.45063 8.34756 9.3062 8.6117 9.16103C8.65118 9.13936 8.69066 9.11769 8.73133 9.09536C8.95767 8.97072 9.18187 8.84352 9.40426 8.71285C9.37793 8.70795 9.3516 8.70304 9.32447 8.69799C9.23404 8.67323 9.23404 8.67323 9.14894 8.59399C9.11295 8.58092 9.07697 8.56785 9.03989 8.55438C8.93617 8.51476 8.93617 8.51476 8.89362 8.43552C8.79533 8.39378 8.69604 8.35402 8.59574 8.31667C8.59574 8.29052 8.59574 8.26437 8.59574 8.23743C8.46936 8.19821 8.34298 8.15899 8.21277 8.11858C8.21277 8.09243 8.21277 8.06628 8.21277 8.03934C8.18863 8.03474 8.16449 8.03015 8.13963 8.02541C8.03273 7.99712 7.94775 7.95649 7.85106 7.90563C7.80301 7.88065 7.80301 7.88065 7.75399 7.85518C7.65957 7.80163 7.65957 7.80163 7.56848 7.7374C7.48463 7.67951 7.42103 7.66009 7.31915 7.64316C7.31915 7.61701 7.31915 7.59086 7.31915 7.56392C7.27702 7.56392 7.23489 7.56392 7.19149 7.56392C7.17745 7.53777 7.1634 7.51162 7.14894 7.48468C7.06489 7.44273 7.06489 7.44273 6.96543 7.40545C6.61639 7.26794 6.61639 7.26794 6.53723 7.18755C6.46648 7.11857 6.46648 7.11857 6.34043 7.0885C6.21277 7.04888 6.21277 7.04888 6.15193 6.99209C6.07634 6.92189 6.00636 6.88938 5.90957 6.84832C5.74938 6.7803 5.74938 6.7803 5.70213 6.69232C5.6212 6.66852 5.6212 6.66852 5.53191 6.6527C5.48979 6.63963 5.44766 6.62655 5.40426 6.61308C5.27494 6.37229 5.2982 5.99776 5.3617 5.74148C5.48327 5.59465 5.63234 5.54027 5.81306 5.46841C6.02832 5.37567 6.22934 5.25671 6.43351 5.14473C6.53057 5.09261 6.6277 5.04062 6.7249 4.98873C7.01004 4.83633 7.29496 4.68357 7.57979 4.53065C7.62557 4.50608 7.67135 4.48152 7.71852 4.45621C7.98436 4.31343 8.24958 4.16972 8.51437 4.02524C8.95358 3.78563 9.39578 3.55176 9.84057 3.32126C10.1086 3.18199 10.374 3.0396 10.6362 2.89102C10.8072 2.79413 10.98 2.70088 11.1543 2.60916C11.3492 2.50623 11.5411 2.39998 11.7314 2.28974C11.9284 2.17591 12.1276 2.06991 12.3319 1.968C12.5828 1.83994 12.8293 1.70456 13.0766 1.57073C13.2422 1.48119 13.4081 1.39247 13.5745 1.30424C14.2667 0.93627 14.953 0.559981 15.6357 0.176819C15.6896 0.14656 15.6896 0.14656 15.7447 0.11569C15.78 0.0926569 15.8154 0.0696241 15.8518 0.0458934C15.9574 -0.00316511 15.9574 -0.00316511 16.0639 0.00252228ZM15.6277 1.73013C15.592 1.75023 15.5562 1.77032 15.5195 1.79102C15.4456 1.83263 15.3718 1.87451 15.2983 1.91668C15.1424 2.00579 14.9849 2.09211 14.8271 2.17831C14.7976 2.19458 14.768 2.21085 14.7375 2.22761C14.5281 2.3424 14.3166 2.45302 14.1037 2.56212C13.5594 2.84129 13.0242 3.13551 12.4894 3.43016C12.1572 3.61311 11.8231 3.79232 11.4867 3.96856C10.9084 4.27161 10.3353 4.58294 9.7638 4.89696C9.73431 4.91316 9.70482 4.92937 9.67444 4.94606C9.61696 4.97765 9.55948 5.00924 9.502 5.04085C9.26603 5.17022 9.02804 5.29618 8.78989 5.42206C8.37926 5.63924 7.97578 5.86629 7.57447 6.09804C7.69993 6.22542 7.82438 6.30579 7.9872 6.38806C8.03477 6.41232 8.08234 6.43659 8.13135 6.46158C8.16885 6.48048 8.16885 6.48048 8.20711 6.49975C8.33832 6.56589 8.46899 6.63295 8.59973 6.6999C8.62552 6.71308 8.65131 6.72625 8.67788 6.73983C8.87497 6.84069 9.06997 6.94437 9.2633 7.05136C9.30382 7.07378 9.30382 7.07378 9.34515 7.09665C9.40247 7.1284 9.45979 7.16015 9.5171 7.19192C9.73059 7.30955 9.9452 7.42542 10.1596 7.54163C10.2462 7.58862 10.3329 7.63561 10.4195 7.68262C10.4566 7.70271 10.4937 7.72281 10.5319 7.74351C10.6383 7.80163 10.6383 7.80163 10.7451 7.87345C10.8488 7.93245 10.8488 7.93245 10.9583 7.8946C10.9931 7.87699 11.028 7.85939 11.0638 7.84125C11.0961 7.82558 11.1284 7.80992 11.1616 7.79378C11.195 7.77614 11.2284 7.75851 11.2628 7.74034C11.301 7.72022 11.3392 7.7001 11.3786 7.67937C11.44 7.64674 11.44 7.64674 11.5027 7.61344C11.5457 7.59067 11.5888 7.56789 11.6332 7.54442C11.984 7.3585 12.3326 7.16924 12.6808 6.97924C12.9763 6.81829 13.2735 6.66039 13.5718 6.50413C13.8481 6.35941 14.1234 6.21365 14.3963 6.06338C14.4531 6.03217 14.51 6.00096 14.5668 5.96975C14.6781 5.90866 14.7893 5.84747 14.9004 5.78615C15.0245 5.71769 15.149 5.64966 15.2735 5.58183C15.3469 5.54171 15.4201 5.50121 15.4933 5.46069C15.5387 5.43604 15.5841 5.41139 15.6308 5.386C15.6914 5.35275 15.6914 5.35275 15.7533 5.31882C15.8849 5.2605 15.9818 5.23226 16.1277 5.22644C16.2498 5.27133 16.2498 5.27133 16.3773 5.34174C16.425 5.36761 16.4727 5.39347 16.5218 5.42012C16.573 5.44882 16.6243 5.47753 16.6755 5.50625C16.7291 5.53559 16.7827 5.56486 16.8363 5.59407C16.9455 5.6537 17.0544 5.71368 17.1632 5.774C17.3438 5.87415 17.5254 5.97271 17.7071 6.07117C17.7895 6.11583 17.8718 6.16057 17.9541 6.20539C18.2785 6.38204 18.6044 6.55615 18.9309 6.72946C19.3303 6.94155 19.7294 7.15431 20.1277 7.3683C20.1715 7.39187 20.2154 7.41544 20.2606 7.43972C20.3238 7.4737 20.3238 7.4737 20.3883 7.50836C20.4295 7.53002 20.4708 7.55168 20.5133 7.574C20.6383 7.64316 20.6383 7.64316 20.7686 7.72887C20.9931 7.88156 20.9931 7.88156 21.2566 7.90417C21.3712 7.85219 21.4702 7.79071 21.5745 7.72239C21.6603 7.67531 21.7465 7.6287 21.8329 7.58249C21.9268 7.53019 22.0206 7.47777 22.1144 7.42526C22.2164 7.36843 22.3185 7.31177 22.4207 7.25518C22.4462 7.24104 22.4718 7.2269 22.4981 7.21233C22.7807 7.0562 23.0669 6.90598 23.3534 6.7562C23.7413 6.55345 24.1262 6.34606 24.5106 6.13766C24.337 5.99945 24.1534 5.89636 23.9548 5.79348C23.9247 5.77752 23.8946 5.76156 23.8636 5.74512C23.8344 5.72987 23.8052 5.71463 23.7751 5.69892C23.7357 5.67834 23.7357 5.67834 23.6955 5.65734C23.6134 5.62104 23.5354 5.60072 23.4468 5.58301C23.4468 5.55686 23.4468 5.53071 23.4468 5.50377C23.1386 5.33207 23.1386 5.33207 22.8032 5.21901C22.7628 5.20839 22.7224 5.19777 22.6809 5.18682C22.6668 5.1476 22.6528 5.10838 22.6383 5.06797C22.554 5.0549 22.4698 5.04182 22.383 5.02835C22.3689 4.98913 22.3549 4.94991 22.3404 4.9095C22.2684 4.86471 22.2684 4.86471 22.1809 4.83026C21.9969 4.75001 21.8286 4.65787 21.6596 4.55293C21.6034 4.55293 21.5472 4.55293 21.4894 4.55293C21.4894 4.52679 21.4894 4.50064 21.4894 4.4737C21.4097 4.41846 21.4097 4.41846 21.3059 4.36475C21.2674 4.34401 21.2289 4.32328 21.1893 4.30191C21.1479 4.28016 21.1065 4.2584 21.0638 4.23599C21.0211 4.21341 20.9784 4.19084 20.9343 4.16758C20.7338 4.0481 20.7338 4.0481 20.5106 3.99828C20.5106 3.97213 20.5106 3.94598 20.5106 3.91904C20.4793 3.90326 20.448 3.88748 20.4157 3.87122C20.3534 3.83974 20.3534 3.83974 20.2899 3.80762C20.2489 3.78693 20.2079 3.76625 20.1657 3.74494C20.0854 3.70345 20.0062 3.65986 19.9287 3.61401C19.8301 3.5528 19.8301 3.5528 19.7021 3.56248C19.7021 3.53633 19.7021 3.51018 19.7021 3.48324C19.6473 3.45664 19.5923 3.43027 19.5372 3.404C19.5066 3.3893 19.476 3.37459 19.4445 3.35943C19.3639 3.31935 19.3639 3.31935 19.2766 3.32477C19.2506 3.30033 19.2506 3.30033 19.2241 3.2754C19.1212 3.1803 19.0059 3.11619 18.883 3.04496C18.8362 3.01754 18.7895 2.99011 18.7414 2.96186C18.5909 2.88653 18.4627 2.84732 18.2979 2.80973C18.2979 2.78358 18.2979 2.75743 18.2979 2.73049C18.2522 2.70435 18.2066 2.6782 18.1596 2.65126C18.1339 2.63655 18.1082 2.62184 18.0818 2.60669C17.9892 2.56108 17.9892 2.56108 17.8298 2.57202C17.8157 2.5328 17.8017 2.49358 17.7872 2.45317C17.6505 2.37845 17.564 2.33431 17.4043 2.33431C17.4043 2.30816 17.4043 2.28202 17.4043 2.25507C17.306 2.22893 17.2077 2.20278 17.1064 2.17584C17.1064 2.14969 17.1064 2.12354 17.1064 2.0966C17.0267 2.04136 17.0267 2.04136 16.9229 1.98765C16.8843 1.96682 16.8456 1.94598 16.8059 1.92451C16.7646 1.90286 16.7234 1.8812 16.6809 1.85889C16.6396 1.83724 16.5984 1.81558 16.5559 1.79327C16.4421 1.73456 16.3286 1.6762 16.2128 1.62118C16.1648 1.59238 16.1648 1.59238 16.1159 1.56299C15.921 1.52759 15.7893 1.63538 15.6277 1.73013ZM15.7886 6.84104C15.7446 6.86479 15.7007 6.88854 15.6554 6.913C15.5838 6.95207 15.5838 6.95207 15.5106 6.99193C15.4606 7.01903 15.4106 7.04611 15.3605 7.07318C15.2564 7.1295 15.1524 7.1859 15.0484 7.24235C14.8128 7.37009 14.5766 7.49666 14.3404 7.62335C14.2492 7.67235 14.158 7.72136 14.0668 7.77037C13.898 7.86105 13.7291 7.95162 13.5602 8.04205C13.4844 8.08263 13.4086 8.12323 13.3328 8.16384C13.2378 8.2147 13.1429 8.26552 13.0479 8.31628C12.809 8.44432 12.5731 8.5752 12.3404 8.71285C12.4542 8.7946 12.5694 8.86715 12.6932 8.93508C12.7291 8.95487 12.7651 8.97466 12.8022 8.99504C12.8411 9.01632 12.8801 9.03759 12.9202 9.05951C12.9819 9.0933 12.9819 9.0933 13.0447 9.12777C13.4067 9.32573 13.7702 9.52115 14.134 9.71602C14.4992 9.91166 14.8632 10.109 15.2265 10.3078C15.4957 10.4546 15.7678 10.5957 16.0426 10.7334C16.0771 10.7133 16.1116 10.6931 16.1471 10.6724C16.372 10.5422 16.5962 10.4139 16.8298 10.2976C17.0481 10.1889 17.2575 10.069 17.4668 9.94597C17.6254 9.85504 17.7894 9.77376 17.9532 9.69123C18.1724 9.5796 18.3892 9.46395 18.6061 9.34837C18.6835 9.30711 18.761 9.26595 18.8385 9.22479C19.1285 9.07055 19.4167 8.91391 19.7021 8.75247C19.5951 8.65063 19.5029 8.57082 19.367 8.50485C19.1956 8.41928 19.0254 8.332 18.8564 8.24238C18.818 8.22203 18.818 8.22203 18.7788 8.20127C18.6201 8.11648 18.4649 8.02789 18.3112 7.93534C18.041 7.77304 17.7595 7.63366 17.4751 7.49443C17.2543 7.38553 17.0423 7.27868 16.8431 7.13818C16.706 7.04988 16.5577 6.98004 16.4106 6.90743C16.3332 6.86856 16.2572 6.82734 16.1825 6.78425C16.0141 6.69381 15.9475 6.7547 15.7886 6.84104ZM20.8692 9.62438C20.821 9.65015 20.7729 9.67592 20.7233 9.70247C20.671 9.73081 20.6188 9.75915 20.5665 9.78749C20.5129 9.81632 20.4593 9.84512 20.4057 9.87391C20.2685 9.94767 20.1315 10.0217 19.9946 10.0959C19.9183 10.1373 19.842 10.1785 19.7656 10.2197C19.223 10.5126 19.223 10.5126 18.6842 10.8114C18.4428 10.9466 18.1976 11.0753 17.9521 11.2038C17.9074 11.2273 17.8626 11.2508 17.8165 11.275C17.7075 11.3322 17.5984 11.3894 17.4894 11.4465C17.4894 11.4857 17.4894 11.525 17.4894 11.5654C17.5328 11.5875 17.5762 11.6097 17.621 11.6325C17.9967 11.8251 18.3693 12.0221 18.7394 12.224C19.0174 12.3757 19.2957 12.5269 19.5753 12.6759C19.6004 12.6893 19.6255 12.7027 19.6514 12.7165C19.778 12.7839 19.9047 12.851 20.0318 12.9176C20.2671 13.0413 20.4996 13.1672 20.7272 13.3028C20.7672 13.326 20.8072 13.3492 20.8485 13.3732C20.9223 13.4162 20.9953 13.4604 21.0672 13.5061C21.1675 13.5637 21.2463 13.603 21.3617 13.6255C21.5231 13.5886 21.6487 13.5109 21.7872 13.4274C21.8709 13.3826 21.9548 13.3381 22.0387 13.2937C22.1261 13.246 22.2133 13.1981 22.3005 13.1501C22.5668 13.0041 22.8331 12.859 23.1037 12.7202C23.2445 12.6472 23.3828 12.5705 23.5213 12.4939C23.9157 12.2768 24.3136 12.0654 24.7118 11.8543C24.8434 11.7846 24.9749 11.7146 25.1064 11.6446C25.0923 11.6185 25.0783 11.5923 25.0638 11.5654C24.9563 11.5394 24.9563 11.5394 24.8511 11.5257C24.8511 11.4996 24.8511 11.4734 24.8511 11.4465C24.7492 11.3815 24.6509 11.3321 24.5354 11.2911C24.4282 11.2494 24.3446 11.2018 24.25 11.1395C24.0332 11.0018 23.8061 10.8874 23.5745 10.773C23.2883 10.6315 23.0136 10.4832 22.745 10.3141C22.6362 10.2569 22.5486 10.2342 22.4255 10.2183C22.4255 10.1922 22.4255 10.166 22.4255 10.1391C22.3149 10.0794 22.2041 10.02 22.0931 9.96082C22.046 9.93531 22.046 9.93531 21.9979 9.90929C21.9676 9.8932 21.9373 9.87711 21.9061 9.86054C21.8643 9.83813 21.8643 9.83813 21.8217 9.81527C21.7394 9.77431 21.7394 9.77431 21.617 9.78254C21.617 9.75639 21.617 9.73025 21.617 9.70331C21.556 9.66998 21.4948 9.63704 21.4335 9.60426C21.3994 9.58587 21.3654 9.56749 21.3303 9.54855C21.1401 9.46292 21.0398 9.53249 20.8692 9.62438ZM10.6612 9.60256C10.6214 9.62354 10.5815 9.64453 10.5405 9.66615C10.4973 9.68904 10.4541 9.71192 10.4096 9.73549C10.3651 9.75896 10.3207 9.78243 10.2749 9.80662C9.78732 10.0646 9.30219 10.3263 8.81799 10.5898C8.77543 10.6129 8.73287 10.6361 8.68903 10.6599C8.60241 10.707 8.51581 10.7542 8.42924 10.8014C8.21533 10.9178 8.00086 11.033 7.78491 11.1461C7.74409 11.1675 7.70327 11.189 7.66122 11.2111C7.58418 11.2514 7.50702 11.2915 7.42971 11.3314C7.3952 11.3494 7.36069 11.3675 7.32513 11.3862C7.29509 11.4017 7.26504 11.4173 7.23408 11.4333C7.13601 11.4941 7.0595 11.565 6.97872 11.6446C7.00644 11.6595 7.03417 11.6744 7.06273 11.6897C8.36602 12.3898 8.36602 12.3898 8.50263 12.4631C8.59327 12.5118 8.68391 12.5605 8.77455 12.6092C8.98959 12.7247 9.20463 12.8402 9.41965 12.9557C9.49577 12.9966 9.5719 13.0375 9.64802 13.0784C9.74355 13.1298 9.83907 13.1811 9.93459 13.2324C10.019 13.2778 10.1036 13.323 10.1882 13.3679C10.2557 13.4045 10.3224 13.4424 10.3877 13.4821C10.4713 13.5346 10.4713 13.5346 10.5957 13.5859C10.8327 13.5167 11.0489 13.3893 11.266 13.2789C11.3267 13.2484 11.3267 13.2484 11.3886 13.2173C11.5767 13.1218 11.7599 13.0243 11.9368 12.9118C12.1092 12.8022 12.288 12.7097 12.4719 12.6181C12.6932 12.5068 12.9101 12.3885 13.1277 12.2711C13.2247 12.2188 13.3217 12.1664 13.4187 12.1141C13.4663 12.0885 13.5139 12.0628 13.563 12.0363C13.6925 11.9667 13.8223 11.8976 13.9523 11.8288C13.9898 11.8088 14.0273 11.7888 14.066 11.7683C14.1358 11.7312 14.2056 11.6942 14.2756 11.6575C14.4415 11.5782 14.4415 11.5782 14.5532 11.4465C14.4275 11.3526 14.4275 11.3526 14.2553 11.3673C14.2413 11.328 14.2272 11.2888 14.2128 11.2484C14.1022 11.1818 14.1022 11.1818 13.9654 11.1197C13.915 11.0954 13.8647 11.071 13.8143 11.0466C13.7886 11.0342 13.7629 11.0218 13.7364 11.009C13.4976 10.8912 13.2634 10.7621 13.0359 10.6263C12.9366 10.5653 12.9366 10.5653 12.8085 10.5749C12.8085 10.5488 12.8085 10.5226 12.8085 10.4957C12.7746 10.4803 12.7407 10.465 12.7058 10.4492C12.2925 10.2601 12.2925 10.2601 12.1489 10.1639C12.0399 10.0851 12.0399 10.0851 11.8723 10.0995C11.8723 10.0733 11.8723 10.0472 11.8723 10.0203C11.7812 9.95687 11.7812 9.95687 11.6676 9.89644C11.6295 9.8751 11.5915 9.85375 11.5524 9.83175C11.4475 9.77367 11.4475 9.77367 11.3191 9.78254C11.3191 9.75639 11.3191 9.73025 11.3191 9.70331C11.2492 9.67019 11.1791 9.6372 11.109 9.60426C11.07 9.58587 11.031 9.56749 10.9909 9.54855C10.8387 9.48073 10.8067 9.52578 10.6612 9.60256ZM15.6943 12.3946C15.617 12.437 15.617 12.437 15.5406 12.4718C15.4088 12.5342 15.2833 12.6059 15.1569 12.6771C15.1149 12.7007 15.1149 12.7007 15.0721 12.7247C14.9566 12.7895 14.8413 12.8543 14.726 12.9192C14.2674 13.177 13.8039 13.4257 13.3374 13.6709C13.2516 13.716 13.1657 13.7611 13.0798 13.8063C13.0375 13.8285 12.9951 13.8507 12.9515 13.8737C12.6612 14.0264 12.3721 14.1806 12.0851 14.3386C12.1872 14.4439 12.2964 14.5082 12.4284 14.5782C12.4722 14.6016 12.516 14.6249 12.5611 14.649C12.6085 14.6741 12.6559 14.6991 12.7048 14.7249C12.7546 14.7514 12.8044 14.7779 12.8541 14.8045C12.9576 14.8596 13.0611 14.9147 13.1647 14.9696C13.4028 15.0961 13.6402 15.2238 13.8777 15.3514C13.923 15.3757 13.9684 15.4001 14.0151 15.4252C14.4149 15.64 14.8138 15.8563 15.2124 16.0732C15.2504 16.0937 15.2884 16.1141 15.3276 16.1352C15.4132 16.1823 15.4981 16.2306 15.5823 16.2798C15.6272 16.3056 15.6721 16.3314 15.7184 16.3579C15.7591 16.3818 15.7997 16.4057 15.8416 16.4303C15.9794 16.4871 16.0296 16.4843 16.1702 16.4384C16.2811 16.3891 16.2811 16.3891 16.3941 16.3254C16.4376 16.3018 16.4812 16.2782 16.526 16.2539C16.5727 16.2281 16.6194 16.2024 16.6676 16.1759C16.717 16.149 16.7664 16.1221 16.8159 16.0952C16.9186 16.0394 17.0213 15.9834 17.1239 15.9274C17.3584 15.7993 17.5942 15.6733 17.8298 15.547C17.9211 15.4979 18.0124 15.4489 18.1037 15.3998C18.2717 15.3096 18.4398 15.2194 18.6078 15.1293C18.683 15.089 18.7581 15.0487 18.8333 15.0084C18.9271 14.9581 19.021 14.9078 19.1149 14.8575C19.3832 14.7136 19.6499 14.5672 19.9149 14.4179C19.7761 14.2774 19.6958 14.2373 19.4894 14.2198C19.4894 14.1936 19.4894 14.1675 19.4894 14.1405C19.4472 14.1405 19.4051 14.1405 19.3617 14.1405C19.3617 14.1144 19.3617 14.0883 19.3617 14.0613C19.3217 14.0431 19.2816 14.0249 19.2404 14.0062C19.1868 13.9817 19.1333 13.9571 19.0798 13.9326C19.0535 13.9207 19.0272 13.9088 19.0002 13.8965C18.8687 13.836 18.7448 13.773 18.624 13.6955C18.5215 13.6182 18.5215 13.6182 18.4255 13.6255C18.4255 13.5994 18.4255 13.5732 18.4255 13.5463C18.2371 13.4375 18.0971 13.3686 17.8723 13.3482C17.8723 13.322 17.8723 13.2959 17.8723 13.2689C17.7629 13.1993 17.7629 13.1993 17.6277 13.1303C17.5822 13.1062 17.5368 13.0821 17.49 13.0572C17.4477 13.0356 17.4053 13.0139 17.3617 12.9916C17.3299 12.9749 17.2981 12.9581 17.2653 12.9409C17.2288 12.9268 17.2288 12.9268 17.1915 12.9124C17.1634 12.9255 17.1353 12.9385 17.1064 12.952C17.0959 12.9275 17.0853 12.903 17.0745 12.8777C17.0109 12.7771 16.9682 12.7528 16.8511 12.7143C16.7949 12.7143 16.7387 12.7143 16.6809 12.7143C16.6598 12.6555 16.6598 12.6555 16.6383 12.5954C16.5677 12.552 16.5677 12.552 16.4814 12.5187C16.3655 12.4686 16.261 12.4167 16.1569 12.3478C15.9651 12.2315 15.8791 12.2906 15.6943 12.3946ZM6.25532 12.7935C6.23894 13.3425 6.22809 13.8913 6.22346 14.4405C6.22115 14.6956 6.21712 14.9504 6.20907 15.2054C6.20135 15.4518 6.19827 15.6979 6.19832 15.9444C6.19754 16.0381 6.19513 16.1318 6.19101 16.2254C6.16925 16.6605 6.16925 16.6605 6.29787 17.0723C6.52674 17.295 6.82374 17.4213 7.12384 17.5419C7.26737 17.6011 7.3976 17.6722 7.53158 17.7481C7.615 17.7928 7.69844 17.8374 7.78191 17.882C8.15306 18.0808 8.52372 18.2804 8.89362 18.4812C8.93448 18.5034 8.97534 18.5255 9.01743 18.5484C9.24746 18.6734 9.47583 18.8004 9.70229 18.9309C9.78358 18.9803 9.78358 18.9803 9.87234 18.974C9.8803 18.4247 9.88628 17.8754 9.88998 17.3261C9.89176 17.071 9.89417 16.816 9.89802 16.5609C9.90172 16.3148 9.90376 16.0688 9.90464 15.8227C9.90527 15.7287 9.9065 15.6348 9.90833 15.5408C9.9108 15.4093 9.91115 15.278 9.91099 15.1465C9.91221 15.1075 9.91343 15.0686 9.9147 15.0285C9.9133 14.9214 9.90907 14.8363 9.87234 14.7348C9.76993 14.643 9.66058 14.5908 9.53191 14.5367C9.47606 14.5021 9.42021 14.4674 9.36436 14.4327C9.18934 14.33 9.00664 14.2723 8.80851 14.2198C8.80851 14.1936 8.80851 14.1675 8.80851 14.1405C8.76638 14.1405 8.72426 14.1405 8.68085 14.1405C8.68085 14.1144 8.68085 14.0883 8.68085 14.0613C8.5719 14.0034 8.46285 13.9456 8.35372 13.888C8.32303 13.8716 8.29234 13.8553 8.26072 13.8385C8.10541 13.7566 7.95383 13.6859 7.78723 13.6255C7.76793 13.6059 7.74862 13.5863 7.72872 13.5661C7.62263 13.4749 7.49941 13.4589 7.3617 13.4274C7.3617 13.4013 7.3617 13.3751 7.3617 13.3482C7.33011 13.3376 7.29851 13.3269 7.26596 13.316C7.15244 13.2704 7.07636 13.2196 6.97872 13.1501C6.90437 13.1098 6.82998 13.0696 6.75482 13.0306C6.68995 12.9964 6.62672 12.9595 6.56383 12.9223C6.46774 12.8631 6.46774 12.8631 6.34043 12.8728C6.34043 12.8466 6.34043 12.8205 6.34043 12.7935C6.31234 12.7935 6.28426 12.7935 6.25532 12.7935ZM25.4601 12.952C25.0957 13.1572 24.7269 13.3549 24.3549 13.548C23.7134 13.8812 23.082 14.2303 22.4548 14.5863C22.406 14.6139 22.406 14.6139 22.3562 14.6422C22.2129 14.7185 22.2129 14.7185 22.0851 14.8141C22.0805 14.8687 22.0789 14.9235 22.0784 14.9783C22.078 15.0136 22.0775 15.049 22.0771 15.0855C22.0769 15.1246 22.0766 15.1637 22.0764 15.2041C22.0759 15.245 22.0755 15.286 22.0751 15.3282C22.0737 15.4643 22.0727 15.6004 22.0716 15.7366C22.0708 15.8307 22.0699 15.9248 22.069 16.0189C22.0666 16.2671 22.0645 16.5153 22.0625 16.7635C22.0603 17.0166 22.058 17.2697 22.0556 17.5227C22.051 18.0197 22.0467 18.5166 22.0426 19.0136C22.1798 18.9634 22.3078 18.9106 22.4357 18.8421C22.4701 18.8238 22.5045 18.8054 22.5399 18.7865C22.5952 18.7567 22.5952 18.7567 22.6516 18.7264C22.6904 18.7056 22.7292 18.6848 22.7692 18.6634C23.1167 18.4771 23.463 18.2889 23.8092 18.1004C24.0405 17.9745 24.2723 17.8493 24.5053 17.726C24.6643 17.6418 24.8222 17.5566 24.9787 17.4685C25.2458 17.3193 25.5169 17.1765 25.7872 17.0327C25.7872 15.6338 25.7872 14.2348 25.7872 12.7935C25.6798 12.7935 25.5526 12.8995 25.4601 12.952ZM11.3617 15.5668C11.338 16.1099 11.3199 16.6528 11.3088 17.1962C11.3035 17.4486 11.2963 17.7007 11.2847 17.953C11.1682 18.9888 11.1682 18.9888 11.4556 19.9482C11.6876 20.1565 11.9506 20.2508 12.2582 20.3273C12.4269 20.3723 12.5609 20.4464 12.7074 20.5339C12.7979 20.5819 12.8883 20.6297 12.9787 20.6776C13.3612 20.8803 13.7424 21.0848 14.1223 21.2916C14.1642 21.3144 14.2061 21.3372 14.2493 21.3607C14.5692 21.5347 14.5692 21.5347 14.696 21.6038C14.7813 21.6501 14.8667 21.6962 14.9521 21.7423C14.9972 21.7667 15.0423 21.7911 15.0888 21.8163C15.1848 21.8722 15.1848 21.8722 15.2766 21.8661C15.2871 21.3323 15.2964 20.7985 15.3043 20.2647C15.3079 20.0168 15.312 19.769 15.317 19.5211C15.3218 19.282 15.3256 19.0428 15.3286 18.8037C15.3299 18.7124 15.3317 18.6211 15.3338 18.5298C15.3366 18.402 15.3382 18.2743 15.3394 18.1465C15.3411 18.0898 15.3411 18.0898 15.3429 18.0319C15.3433 17.8519 15.3417 17.7728 15.2199 17.6267C15.0924 17.538 14.9639 17.4634 14.8245 17.3917C14.7983 17.3781 14.7722 17.3646 14.7452 17.3506C14.5872 17.2688 14.4278 17.1892 14.2686 17.1094C14.1108 17.03 13.9592 16.9451 13.8085 16.8544C13.6253 16.7442 13.4389 16.6452 13.2467 16.5495C12.9577 16.4023 12.6742 16.2459 12.3895 16.0917C12.26 16.0218 12.13 15.9528 12 15.8838C11.9473 15.8555 11.8947 15.8272 11.8421 15.7989C11.8164 15.7852 11.7906 15.7714 11.7641 15.7572C11.7111 15.7287 11.6582 15.7003 11.6052 15.6717C11.4904 15.5987 11.4904 15.5987 11.3617 15.5668ZM20.2806 15.7638C20.2328 15.7894 20.185 15.8149 20.1358 15.8412C20.0834 15.8694 20.0311 15.8976 19.9787 15.9258C19.9247 15.9548 19.8706 15.9838 19.8165 16.0127C19.6774 16.0873 19.5383 16.162 19.3994 16.2368C19.2773 16.3025 19.1551 16.3679 19.0329 16.4335C18.8517 16.5307 18.6705 16.628 18.4894 16.7255C18.3217 16.8157 18.154 16.9057 17.9861 16.9956C17.9102 17.0362 17.8344 17.0768 17.7585 17.1175C17.6635 17.1684 17.5685 17.2192 17.4734 17.27C17.4303 17.2931 17.3872 17.3162 17.3428 17.34C17.3052 17.3601 17.2677 17.3802 17.229 17.4009C17.1886 17.4232 17.1481 17.4455 17.1064 17.4685C17.0783 17.4803 17.0502 17.4921 17.0213 17.5042C16.836 17.5905 16.836 17.5905 16.735 17.751C16.7239 17.8589 16.7238 17.9627 16.7273 18.0709C16.7273 18.1115 16.7272 18.1521 16.7272 18.194C16.7274 18.328 16.73 18.4619 16.7327 18.5959C16.7333 18.6889 16.7338 18.7819 16.7342 18.8748C16.7355 19.1194 16.7388 19.364 16.7426 19.6086C16.7461 19.8582 16.7476 20.1078 16.7493 20.3574C16.753 20.8471 16.7588 21.3368 16.766 21.8265C16.9133 21.782 17.0444 21.7421 17.1732 21.6615C17.3883 21.5318 17.6107 21.415 17.8335 21.2972C17.9648 21.2278 18.096 21.1581 18.2272 21.0884C18.2541 21.0742 18.2809 21.0599 18.3086 21.0453C18.5955 20.893 18.8816 20.7396 19.1676 20.5859C19.2139 20.5611 19.2602 20.5362 19.3079 20.5106C19.5308 20.3922 19.5308 20.3922 19.7495 20.2671C19.8501 20.2139 19.9418 20.1759 20.0489 20.1372C20.4092 19.9947 20.4092 19.9947 20.6364 19.7132C20.6994 19.4311 20.6786 19.1434 20.6664 18.8573C20.665 18.7646 20.664 18.6719 20.6633 18.5792C20.6605 18.3361 20.6534 18.0933 20.6454 17.8504C20.638 17.6021 20.6347 17.3538 20.6311 17.1054C20.6233 16.6188 20.611 16.1325 20.5957 15.646C20.4682 15.646 20.3906 15.7047 20.2806 15.7638ZM1.44681 16.0026C1.42347 17.159 1.40542 18.3154 1.39466 19.4719C1.39338 19.6087 1.39206 19.7455 1.39071 19.8822C1.39044 19.9094 1.39017 19.9367 1.3899 19.9647C1.38546 20.4047 1.37741 20.8445 1.36801 21.2844C1.35844 21.7363 1.35286 22.1881 1.35072 22.6401C1.34939 22.8938 1.34628 23.1473 1.33883 23.4009C1.2437 24.3882 1.2437 24.3882 1.54699 25.2924C1.78335 25.4963 2.04094 25.5993 2.3492 25.6769C2.51082 25.7206 2.63279 25.7893 2.77394 25.8737C2.85637 25.9179 2.93882 25.9621 3.02128 26.0062C3.37653 26.1967 3.73117 26.3881 4.08511 26.5807C4.57648 26.848 5.06932 27.1129 5.56246 27.3774C5.79347 27.5013 6.02439 27.6254 6.25532 27.7494C6.34752 27.7989 6.43972 27.8485 6.53191 27.898C6.80851 28.0466 6.80851 28.0466 7.08511 28.1951C7.13077 28.2196 7.17643 28.2442 7.22348 28.2694C7.31543 28.3188 7.40739 28.3682 7.49935 28.4176C7.73354 28.5434 7.96774 28.6692 8.20196 28.795C8.24922 28.8203 8.29648 28.8457 8.34517 28.8719C8.43844 28.922 8.53171 28.972 8.62499 29.0221C8.83987 29.1375 9.05461 29.253 9.26895 29.3693C9.30683 29.3898 9.34471 29.4103 9.38374 29.4315C9.45417 29.4696 9.52456 29.5079 9.5949 29.5462C9.72603 29.6317 9.72603 29.6317 9.87234 29.6709C9.88085 29.2132 9.88867 28.7555 9.8956 28.2978C9.89884 28.0853 9.90232 27.8728 9.90634 27.6603C9.91022 27.4553 9.91347 27.2504 9.91627 27.0454C9.91746 26.967 9.91887 26.8887 9.92051 26.8104C9.92276 26.701 9.92422 26.5915 9.92548 26.482C9.92634 26.4495 9.92719 26.417 9.92808 26.3834C9.93447 26.2187 9.93447 26.2187 9.85602 26.0779C9.77736 26.0186 9.7159 26.0023 9.61702 25.9864C9.61702 25.9603 9.61702 25.9341 9.61702 25.9072C9.49338 25.8263 9.42973 25.7883 9.2766 25.7883C9.2766 25.7622 9.2766 25.736 9.2766 25.7091C9.25304 25.6971 9.22949 25.6852 9.20522 25.6728C8.41407 25.2708 8.41407 25.2708 8.09458 25.0882C7.9849 25.0272 7.87311 24.9707 7.76064 24.9142C7.62473 24.846 7.49182 24.7762 7.3617 24.6988C7.24013 24.6266 7.11664 24.5614 6.98936 24.4982C6.75424 24.3805 6.52625 24.2529 6.29787 24.1243C6.07391 23.9983 5.85056 23.8728 5.61968 23.7579C5.5877 23.7414 5.55571 23.725 5.52276 23.7081C5.43799 23.6658 5.35169 23.626 5.26455 23.5881C4.88227 23.404 4.88227 23.404 4.8002 23.2146C4.78114 23.0698 4.77978 22.9327 4.78436 22.7868C4.78409 22.7322 4.78358 22.6775 4.78285 22.6228C4.78156 22.4751 4.78366 22.3275 4.78638 22.1798C4.78865 22.0252 4.78778 21.8706 4.78724 21.716C4.78671 21.4236 4.78898 21.1312 4.79227 20.8388C4.79588 20.5058 4.79635 20.1727 4.79655 19.8397C4.79705 19.1549 4.80148 18.4702 4.80851 17.7854C4.76818 17.7732 4.72785 17.761 4.68629 17.7485C4.57664 17.7136 4.49112 17.6782 4.39362 17.622C4.26964 17.5411 4.26964 17.5411 4.17021 17.5477C4.17021 17.5216 4.17021 17.4954 4.17021 17.4685C4.12808 17.4685 4.08596 17.4685 4.04255 17.4685C4.04255 17.4423 4.04255 17.4162 4.04255 17.3892C4.00043 17.3892 3.9583 17.3892 3.91489 17.3892C3.90085 17.35 3.88681 17.3108 3.87234 17.2704C3.76104 17.2176 3.76104 17.2176 3.62766 17.1738C3.43821 17.108 3.30376 17.0345 3.14894 16.9138C3.07824 16.8869 3.00736 16.8604 2.93617 16.8346C2.91511 16.7954 2.91511 16.7954 2.89362 16.7554C2.82311 16.728 2.7521 16.7017 2.68085 16.6761C2.64311 16.6549 2.60537 16.6336 2.56649 16.6117C2.47497 16.5505 2.47497 16.5505 2.38298 16.5573C2.38298 16.5311 2.38298 16.505 2.38298 16.478C2.20154 16.3846 2.20154 16.3846 2 16.3592C2 16.333 2 16.3069 2 16.2799C1.97455 16.2758 1.9491 16.2718 1.92287 16.2676C1.81453 16.2359 1.78158 16.1954 1.70213 16.1215C1.61758 16.0808 1.53251 16.0411 1.44681 16.0026ZM30.109 16.2255C29.8369 16.3863 29.5619 16.5362 29.2766 16.6761C28.9094 16.8588 28.5493 17.0523 28.1895 17.2472C27.9746 17.3635 27.7588 17.4782 27.5426 17.5923C27.4522 17.6408 27.3634 17.6919 27.2766 17.7458C27.26 17.8453 27.26 17.8453 27.2671 17.9634C27.2687 18.0328 27.2687 18.0328 27.2703 18.1036C27.273 18.1801 27.273 18.1801 27.2758 18.2582C27.2772 18.3122 27.2785 18.3663 27.2798 18.4204C27.2826 18.5371 27.2858 18.6538 27.289 18.7706C27.294 18.9556 27.2969 19.1407 27.2994 19.3257C27.2998 19.357 27.3002 19.3883 27.3006 19.4205C27.3018 19.5168 27.3031 19.6131 27.3043 19.7095C27.3093 20.108 27.3157 20.5064 27.3287 20.9048C27.3381 21.1954 27.3435 21.4857 27.3444 21.7764C27.345 21.9302 27.3476 22.0834 27.355 22.237C27.3981 23.1649 27.3981 23.1649 27.1287 23.4393C26.8663 23.6286 26.5792 23.7519 26.2731 23.8675C26.0324 23.9647 25.8118 24.0921 25.5878 24.2184C25.5036 24.2644 25.4193 24.3102 25.3349 24.3559C25.1427 24.4608 24.9514 24.5669 24.7606 24.674C24.3912 24.8816 24.0159 25.0793 23.6398 25.2762C23.0395 25.5907 23.0395 25.5907 22.4475 25.9185C22.3283 25.9861 22.2103 26.047 22.0851 26.1053C22.0851 27.2819 22.0851 28.4586 22.0851 29.6709C22.3078 29.6037 22.3078 29.6037 22.4993 29.5042C22.5271 29.4876 22.5548 29.471 22.5834 29.4539C22.612 29.4364 22.6407 29.419 22.6702 29.401C22.8938 29.2677 23.1161 29.1444 23.3562 29.0381C23.4899 28.978 23.6167 28.9088 23.7447 28.8389C23.7447 28.8128 23.7447 28.7866 23.7447 28.7597C23.7908 28.7532 23.7908 28.7532 23.8379 28.7466C23.9664 28.7181 24.0554 28.6756 24.1687 28.613C24.2093 28.5907 24.2499 28.5685 24.2917 28.5455C24.335 28.5214 24.3783 28.4973 24.4229 28.4724C24.468 28.4476 24.5131 28.4228 24.5595 28.3973C24.6994 28.3203 24.8391 28.2429 24.9787 28.1654C25.1418 28.0753 25.3049 27.9854 25.4681 27.8955C25.5067 27.8742 25.5454 27.8529 25.5852 27.8309C25.8934 27.6612 26.2047 27.497 26.5175 27.3346C26.6496 27.2657 26.7809 27.1956 26.9122 27.1254C27.132 27.0082 27.3526 26.8925 27.5745 26.7788C27.5745 26.7526 27.5745 26.7265 27.5745 26.6995C27.5992 26.6946 27.6239 26.6896 27.6494 26.6845C27.7452 26.6598 27.8201 26.6274 27.9071 26.583C27.939 26.5667 27.971 26.5505 28.0039 26.5337C28.0559 26.5067 28.0559 26.5067 28.109 26.4792C28.1458 26.4602 28.1825 26.4413 28.2204 26.4218C28.5941 26.2278 28.9617 26.0241 29.329 25.8199C29.6282 25.6537 29.9287 25.4906 30.2344 25.3352C30.3397 25.2812 30.4251 25.234 30.5106 25.1544C30.5189 25.0347 30.5217 24.9187 30.5209 24.799C30.5209 24.7617 30.521 24.7244 30.5211 24.686C30.5212 24.5603 30.5208 24.4346 30.5203 24.309C30.5203 24.2192 30.5203 24.1294 30.5203 24.0396C30.5204 23.7952 30.5199 23.5508 30.5193 23.3064C30.5187 23.0512 30.5187 22.796 30.5186 22.5408C30.5184 22.1123 30.5178 21.6838 30.5171 21.2553C30.5163 20.8139 30.5157 20.3724 30.5153 19.931C30.5153 19.8902 30.5153 19.8902 30.5152 19.8486C30.5151 19.7122 30.515 19.5757 30.5149 19.4393C30.514 18.3069 30.5125 17.1746 30.5106 16.0422C30.3581 16.0422 30.2345 16.1502 30.109 16.2255ZM25.4388 18.7239C25.1542 18.8859 24.8654 19.0399 24.5745 19.1919C24.2708 19.3507 23.9695 19.5119 23.6719 19.6803C23.4856 19.7854 23.2967 19.8855 23.1064 19.9842C22.8722 20.1059 22.6399 20.2301 22.4096 20.3581C22.3825 20.3731 22.3554 20.3881 22.3275 20.4035C22.2218 20.4626 22.13 20.5169 22.0426 20.5983C22.0306 20.6725 22.0306 20.6725 22.0339 20.7583C22.0342 20.7917 22.0344 20.8251 22.0347 20.8596C22.0354 20.8964 22.0361 20.9331 22.0368 20.971C22.0372 21.0097 22.0376 21.0483 22.038 21.0881C22.0395 21.2163 22.0415 21.3445 22.0435 21.4727C22.0447 21.5614 22.0457 21.6501 22.0468 21.7388C22.0496 21.9727 22.053 22.2065 22.0564 22.4403C22.0599 22.6788 22.0628 22.9172 22.0658 23.1557C22.0718 23.6239 22.0783 24.092 22.0851 24.5601C22.1248 24.539 22.1646 24.5179 22.2055 24.4961C22.2587 24.4677 22.312 24.4394 22.3653 24.4111C22.4044 24.3903 22.4044 24.3903 22.4442 24.3691C22.6173 24.277 22.7905 24.185 22.9638 24.0931C23.4815 23.8183 23.9985 23.5425 24.5124 23.2615C24.9354 23.0306 25.3615 22.8057 25.7872 22.5792C25.7872 21.2588 25.7872 19.9383 25.7872 18.5778C25.6512 18.5778 25.5515 18.6587 25.4388 18.7239ZM6.29787 18.6174C6.29787 19.9248 6.29787 21.2322 6.29787 22.5792C7.0704 22.9942 7.0704 22.9942 7.84311 23.4089C7.88259 23.4301 7.92208 23.4513 7.96277 23.4731C8.00735 23.497 8.05194 23.521 8.09788 23.5456C8.33077 23.6707 8.56328 23.7963 8.79521 23.9229C8.84123 23.9479 8.88724 23.973 8.93465 23.9989C9.02155 24.0464 9.10839 24.0939 9.19517 24.1415C9.25407 24.1737 9.25407 24.1737 9.31416 24.2065C9.34812 24.2251 9.38208 24.2438 9.41708 24.263C9.51355 24.3129 9.61051 24.3596 9.7093 24.4054C9.75514 24.4266 9.75514 24.4266 9.80191 24.4483C9.82515 24.4591 9.84839 24.4698 9.87234 24.4809C9.87987 23.9884 9.88693 23.496 9.89339 23.0035C9.89641 22.7748 9.89959 22.5461 9.90313 22.3175C9.90655 22.0968 9.90954 21.8762 9.91224 21.6555C9.91334 21.5713 9.9146 21.4871 9.91601 21.4029C9.91796 21.285 9.91937 21.1671 9.92065 21.0492C9.92135 21.0143 9.92206 20.9795 9.92278 20.9436C9.92407 20.7716 9.92078 20.6343 9.82979 20.4795C9.76109 20.4217 9.76109 20.4217 9.67703 20.3821C9.64716 20.3667 9.61729 20.3512 9.58652 20.3353C9.55533 20.32 9.52415 20.3046 9.49202 20.2888C9.461 20.2727 9.42998 20.2566 9.39802 20.24C9.22052 20.1467 9.22052 20.1467 9.02128 20.1229C9.02128 20.0968 9.02128 20.0706 9.02128 20.0437C8.86257 19.9631 8.78004 19.9248 8.59574 19.9248C8.59574 19.8987 8.59574 19.8725 8.59574 19.8456C8.42273 19.719 8.42273 19.719 8.21277 19.6871C8.21277 19.661 8.21277 19.6348 8.21277 19.6079C8.18391 19.5935 8.15506 19.5791 8.12533 19.5642C7.88219 19.4419 7.64494 19.3152 7.4124 19.1761C7.3112 19.1206 7.3112 19.1206 7.14894 19.1324C7.13489 19.0932 7.12085 19.054 7.10638 19.0136C7.03035 18.9632 7.03035 18.9632 6.93883 18.9245C6.90861 18.9104 6.87838 18.8963 6.84724 18.8817C6.82042 18.873 6.79359 18.8642 6.76596 18.8551C6.72383 18.8747 6.72383 18.8747 6.68085 18.8947C6.68085 18.8686 6.68085 18.8424 6.68085 18.8155C6.65277 18.8155 6.62468 18.8155 6.59574 18.8155C6.59574 18.7894 6.59574 18.7632 6.59574 18.7363C6.49745 18.697 6.39915 18.6578 6.29787 18.6174ZM11.3617 21.3511C11.3459 21.8607 11.3338 22.3704 11.3264 22.8802C11.3229 23.117 11.3181 23.3536 11.3103 23.5903C11.3029 23.819 11.2989 24.0475 11.2971 24.2762C11.2959 24.3633 11.2934 24.4503 11.2897 24.5373C11.2532 24.9868 11.2532 24.9868 11.4274 25.3874C11.5877 25.5148 11.7649 25.5986 11.958 25.6746C12.0831 25.7256 12.1957 25.7906 12.3122 25.8569C12.3978 25.9026 12.4834 25.9483 12.5691 25.9938C12.665 26.0451 12.7609 26.0963 12.8567 26.1475C12.905 26.1733 12.9533 26.199 13.003 26.2255C13.2398 26.3518 13.4763 26.4786 13.7128 26.6054C13.7581 26.6297 13.8034 26.654 13.85 26.679C14.0776 26.8011 14.3043 26.9243 14.5299 27.0494C14.595 27.0855 14.595 27.0855 14.6614 27.1223C14.7435 27.168 14.8255 27.2138 14.9075 27.2598C14.9437 27.2799 14.9799 27.3001 15.0173 27.3209C15.049 27.3387 15.0808 27.3565 15.1134 27.3748C15.1894 27.4188 15.1894 27.4188 15.2766 27.4127C15.2865 26.9061 15.294 26.3995 15.2986 25.8929C15.3009 25.6576 15.3039 25.4224 15.3087 25.1871C15.3133 24.96 15.3159 24.733 15.317 24.5059C15.3178 24.4193 15.3193 24.3327 15.3216 24.2462C15.3554 23.7871 15.3554 23.7871 15.1845 23.3773C15.075 23.3046 14.9762 23.2577 14.8511 23.2131C14.7987 23.185 14.7469 23.1562 14.6956 23.1265C14.6495 23.1028 14.6034 23.0791 14.5559 23.0547C14.3685 22.9574 14.1853 22.8564 14.0053 22.7476C13.8241 22.6384 13.6411 22.5476 13.4468 22.4604C13.4047 22.4342 13.3626 22.4081 13.3191 22.3811C13.277 22.3811 13.2349 22.3811 13.1915 22.3811C13.1915 22.355 13.1915 22.3288 13.1915 22.3019C13.1641 22.2884 13.1367 22.2749 13.1085 22.2611C12.8324 22.1231 12.5648 21.9753 12.2997 21.8198C12.1735 21.7491 12.0498 21.6834 11.9149 21.6284C11.8728 21.648 11.8728 21.648 11.8298 21.668C11.8157 21.6288 11.8017 21.5896 11.7872 21.5492C11.7451 21.5492 11.703 21.5492 11.6596 21.5492C11.6455 21.523 11.6315 21.4969 11.617 21.4699C11.5309 21.4441 11.5309 21.4441 11.4468 21.4303C11.4468 21.4042 11.4468 21.378 11.4468 21.3511C11.4187 21.3511 11.3906 21.3511 11.3617 21.3511ZM20.3223 21.4487C20.2828 21.4703 20.2434 21.4919 20.2027 21.5141C20.1595 21.5379 20.1163 21.5617 20.0718 21.5863C20.0269 21.6109 19.9821 21.6355 19.9358 21.6608C19.8385 21.7141 19.7412 21.7675 19.6439 21.821C19.486 21.9077 19.3278 21.9939 19.1695 22.08C18.4732 22.4543 18.4732 22.4543 17.7869 22.8439C17.6632 22.9141 17.5377 22.9695 17.4049 23.0233C16.9953 23.1943 16.9953 23.1943 16.7183 23.5063C16.646 23.7812 16.6682 24.0613 16.6828 24.3416C16.6844 24.4315 16.6856 24.5215 16.6865 24.6114C16.6897 24.8468 16.6981 25.0819 16.7075 25.3171C16.7163 25.5577 16.7201 25.7984 16.7244 26.039C16.7335 26.5103 16.748 26.9812 16.766 27.4523C16.827 27.4208 16.8879 27.3893 16.9489 27.3577C16.9829 27.3402 17.0169 27.3226 17.0518 27.3045C17.1734 27.2415 17.2942 27.1774 17.4149 27.113C17.4663 27.0857 17.5176 27.0583 17.569 27.0309C17.5968 27.016 17.6246 27.0012 17.6532 26.9859C17.7542 26.9322 17.8552 26.8786 17.9563 26.825C18.3312 26.6262 18.7054 26.4263 19.077 26.222C19.3965 26.0462 19.7172 25.8724 20.038 25.6985C20.0796 25.6759 20.1213 25.6533 20.1642 25.63C20.2013 25.6099 20.2384 25.5898 20.2766 25.5691C20.3117 25.5499 20.3468 25.5307 20.383 25.511C20.4198 25.4981 20.4566 25.4852 20.4945 25.472C20.6012 25.4038 20.6012 25.4038 20.615 25.3168C20.6221 25.2133 20.622 25.1114 20.6199 25.0077C20.6199 24.9682 20.62 24.9288 20.62 24.8882C20.6198 24.7576 20.6182 24.6271 20.6165 24.4965C20.6161 24.4061 20.6158 24.3157 20.6156 24.2252C20.6148 23.987 20.6127 23.7489 20.6104 23.5107C20.6082 23.2677 20.6072 23.0247 20.6061 22.7817C20.6039 22.3048 20.6002 21.828 20.5957 21.3511C20.4798 21.3511 20.4222 21.3938 20.3223 21.4487Z" fill="#12B3EE"/>
</svg>
